# xmcd
# Copyright (C) 1995-1998 Ti Kan
#
# Track frame offsets:
#       150
#       14042
#       30243
#       46972
#       62470
#
# Disc length: 1127 seconds
#
# Revision: 0
# Processed by: cddbd v1.5.1PL0 Copyright (c) Steve Scherf et al.
# Submitted via: CD-Transfer v1.0
#
DISCID=34046505
DTITLE=Mogus - 
DYEAR=2005
DGENRE=
TTITLE0=Riich
TTITLE1=Leermond
TTITLE2=Selbstmitleid
TTITLE3=Schnee
TTITLE4=Riich (Riicher)
EXTD=
EXTT0=
EXTT1=
EXTT2=
EXTT3=
EXTT4=
PLAYORDER=
